<svg xmlns="http://www.w3.org/2000/svg" viewBox="0 0 512 512" role="img" aria-label="Gatekeeper icon">
  <defs>
    <linearGradient id="bg" x1="0" y1="0" x2="1" y2="1">
      <stop offset="0%" stop-color="#13243f" />
      <stop offset="100%" stop-color="#224f6e" />
    </linearGradient>
    <linearGradient id="gate" x1="0" y1="0" x2="0" y2="1">
      <stop offset="0%" stop-color="#f3d58a" />
      <stop offset="100%" stop-color="#d99a32" />
    </linearGradient>
  </defs>

  <rect width="512" height="512" rx="110" fill="url(#bg)" />
  <circle cx="256" cy="256" r="210" fill="none" stroke="#e9eef5" stroke-opacity="0.24" stroke-width="18" />

  <path d="M170 162h172a26 26 0 0 1 26 26v136a26 26 0 0 1-26 26H170a26 26 0 0 1-26-26V188a26 26 0 0 1 26-26Z" fill="url(#gate)" />
  <path d="M190 174h132a22 22 0 0 1 22 22v120a22 22 0 0 1-22 22H190a22 22 0 0 1-22-22V196a22 22 0 0 1 22-22Z" fill="#fff5da" />

  <circle cx="256" cy="256" r="38" fill="#1f344f" />
  <rect x="247" y="230" width="18" height="52" rx="8" fill="#fff5da" />

  <path d="M120 370h272" stroke="#e9eef5" stroke-opacity="0.22" stroke-width="18" stroke-linecap="round" />
</svg>
